<svg width="62" height="18" viewBox="0 0 62 18" fill="none" xmlns="http://www.w3.org/2000/svg">
<path d="M2.06 -9.53674e-07H7.36C8.72 -9.53674e-07 9.77333 0.346666 10.52 1.04C11.2667 1.72 11.64 2.62667 11.64 3.76C11.64 3.94667 11.6267 4.14 11.6 4.34C11.5733 4.54 11.54 4.74667 11.5 4.96L10.62 9.16C10.4333 10.0133 10.18 10.7467 9.86 11.36C9.54 11.96 9.12667 12.46 8.62 12.86C8.12667 13.2467 7.53333 13.5333 6.84 13.72C6.16 13.9067 5.36667 14 4.46 14H0.04V11.48H1.48L3.38 2.52H2.06V-9.53674e-07ZM5 11.48C5.92 11.48 6.60667 11.2667 7.06 10.84C7.52667 10.4 7.85333 9.72 8.04 8.8L8.86 4.96C8.88667 4.85333 8.90667 4.73333 8.92 4.6C8.94667 4.45333 8.96 4.32 8.96 4.2C8.96 3.65333 8.79333 3.24 8.46 2.96C8.12667 2.66667 7.60667 2.52 6.9 2.52H6.02L4.12 11.48H5ZM15.8061 6.44L15.6061 6.32L14.0261 7.48L12.6861 5.68L14.2861 4.48C14.5928 4.25333 14.9128 4.08667 15.2461 3.98C15.5928 3.86 15.9194 3.8 16.2261 3.8C16.7594 3.8 17.2261 3.94667 17.6261 4.24C18.0261 4.53333 18.2661 4.94667 18.3461 5.48H18.7061C18.9728 4.92 19.3461 4.5 19.8261 4.22C20.3061 3.94 20.8461 3.8 21.4461 3.8C22.2061 3.8 22.8194 4.04 23.2861 4.52C23.7661 4.98667 24.0061 5.64 24.0061 6.48C24.0061 6.65333 23.9928 6.82667 23.9661 7C23.9528 7.16 23.9194 7.36 23.8661 7.6L23.7661 8.04L21.0861 8.24L21.1461 7.96C21.1861 7.76 21.2061 7.58 21.2061 7.42C21.2061 7.03333 21.0994 6.72667 20.8861 6.5C20.6728 6.27333 20.3528 6.16 19.9261 6.16C19.3928 6.16 18.9661 6.34 18.6461 6.7C18.3394 7.06 18.1128 7.57333 17.9661 8.24L17.2461 11.6H19.6461V14H12.8061V11.6H14.7261L15.8061 6.44ZM33.5722 -9.53674e-07L31.4922 9.64H28.8522L30.9322 -9.53674e-07H33.5722ZM31.6122 12.38C31.6122 12.6467 31.5589 12.9 31.4522 13.14C31.3589 13.3667 31.2255 13.5667 31.0522 13.74C30.8789 13.9 30.6722 14.0267 30.4322 14.12C30.2055 14.2267 29.9655 14.28 29.7122 14.28C29.4455 14.28 29.1989 14.2267 28.9722 14.12C28.7455 14.0267 28.5455 13.9 28.3722 13.74C28.1989 13.5667 28.0589 13.3667 27.9522 13.14C27.8589 12.9 27.8122 12.6467 27.8122 12.38C27.8122 12.1133 27.8589 11.8667 27.9522 11.64C28.0589 11.4 28.1989 11.2 28.3722 11.04C28.5455 10.8667 28.7455 10.7333 28.9722 10.64C29.1989 10.5333 29.4455 10.48 29.7122 10.48C29.9655 10.48 30.2055 10.5333 30.4322 10.64C30.6722 10.7333 30.8789 10.8667 31.0522 11.04C31.2255 11.2 31.3589 11.4 31.4522 11.64C31.5589 11.8667 31.6122 12.1133 31.6122 12.38ZM39.1583 18H36.6383L39.0983 6.46L38.8983 6.32L37.9783 7L36.6783 5.2L37.7583 4.4C38.0383 4.2 38.3249 4.05333 38.6183 3.96C38.9249 3.85333 39.2183 3.8 39.4983 3.8C40.0316 3.8 40.4983 3.95333 40.8983 4.26C41.2983 4.56667 41.5449 4.98667 41.6383 5.52H41.9983C42.6516 4.37333 43.7183 3.8 45.1983 3.8C45.6516 3.8 46.0849 3.88667 46.4983 4.06C46.9116 4.23333 47.2716 4.48667 47.5783 4.82C47.8983 5.15333 48.1449 5.56667 48.3183 6.06C48.5049 6.54 48.5983 7.09333 48.5983 7.72C48.5983 8.50667 48.4983 9.29333 48.2983 10.08C48.1116 10.8667 47.8116 11.5733 47.3983 12.2C46.9849 12.8133 46.4516 13.3133 45.7983 13.7C45.1583 14.0867 44.3849 14.28 43.4783 14.28C43.0516 14.28 42.6783 14.2267 42.3583 14.12C42.0383 14.0267 41.7649 13.9 41.5383 13.74C41.3116 13.58 41.1249 13.4 40.9783 13.2C40.8316 12.9867 40.7316 12.7733 40.6783 12.56H40.3183L39.1583 18ZM42.9983 11.88C43.4916 11.88 43.9249 11.7933 44.2983 11.62C44.6716 11.4333 44.9783 11.18 45.2183 10.86C45.4716 10.54 45.6583 10.16 45.7783 9.72C45.8983 9.28 45.9583 8.8 45.9583 8.28C45.9583 7.72 45.7783 7.23333 45.4183 6.82C45.0583 6.40667 44.5583 6.2 43.9183 6.2C43.4649 6.2 43.0583 6.29333 42.6983 6.48C42.3383 6.65333 42.0316 6.9 41.7783 7.22C41.5249 7.54 41.3249 7.92 41.1783 8.36C41.0449 8.8 40.9783 9.28 40.9783 9.8C40.9783 10.4267 41.1583 10.9333 41.5183 11.32C41.8783 11.6933 42.3716 11.88 42.9983 11.88ZM53.5444 9.84C53.5177 9.93333 53.4977 10.0333 53.4844 10.14C53.471 10.2467 53.4644 10.3533 53.4644 10.46C53.4644 10.9667 53.611 11.3533 53.9044 11.62C54.1977 11.8733 54.5977 12 55.1044 12C55.8244 12 56.3777 11.7667 56.7644 11.3C57.151 10.8333 57.4377 10.16 57.6244 9.28L58.7244 4.08H61.2444L58.6244 16.44C58.531 16.8933 58.311 17.2667 57.9644 17.56C57.6177 17.8533 57.2177 18 56.7644 18H50.9644V15.6H55.7444C56.1044 15.6 56.3244 15.4 56.4044 15L56.9244 12.56H56.5644C56.271 13.16 55.8977 13.6 55.4444 13.88C54.991 14.1467 54.4244 14.28 53.7444 14.28C53.3444 14.28 52.971 14.2067 52.6244 14.06C52.2777 13.9267 51.971 13.7333 51.7044 13.48C51.4377 13.2133 51.2244 12.8933 51.0644 12.52C50.9177 12.1333 50.8444 11.6933 50.8444 11.2C50.8444 10.8667 50.8844 10.52 50.9644 10.16L51.7444 6.46L51.5444 6.32L50.3444 7.16L49.0844 5.28L50.5444 4.3C50.7977 4.12667 51.0577 4 51.3244 3.92C51.591 3.84 51.8577 3.8 52.1244 3.8C52.4177 3.8 52.6977 3.85333 52.9644 3.96C53.231 4.05333 53.4644 4.19333 53.6644 4.38C53.8644 4.55333 54.0244 4.77333 54.1444 5.04C54.2644 5.29333 54.3244 5.58667 54.3244 5.92C54.3244 6.10667 54.3044 6.30667 54.2644 6.52L53.5444 9.84Z" fill="#A9D6E5"/>
</svg>
